<?xml version="1.0" encoding="utf-8"?>
<!-- Generator: Adobe Illustrator 25.3.1, SVG Export Plug-In . SVG Version: 6.00 Build 0)  -->
<svg version="1.1" id="Layer_1" xmlns="http://www.w3.org/2000/svg" xmlns:xlink="http://www.w3.org/1999/xlink" x="0px" y="0px"
	 viewBox="0 0 1439 959.2" style="enable-background:new 0 0 1439 959.2;" xml:space="preserve">
<style type="text/css">
	.st0{fill:none;stroke:#DDDDDD;}
</style>
<g>
	<g id="Pattern" transform="translate(-282 -1822)">
		<g id="Group_12">
			<path id="Path_30" class="st0" d="M1685.2,2318c67.1,88.8,18.5,150.2,16,223.8c-2.7,78.4,51.2,184.7-31.1,220.6
				c-83.9,36.6-242.1,15.3-389.3-37.2c-134.4-47.9-217.8-159.4-347.3-225.4c-157.2-80-352.3-90.9-475.5-193.6
				c-123.7-103.1-150.2-222.1-112-296c36.1-70,206.1-45.8,304.4-76.7c99.5-31.3,122.4-136.1,273.7-105.4
				c151.1,30.7,285.8,157.7,424.8,247.2C1471.1,2154,1617.1,2227.8,1685.2,2318z"/>
			<path id="Path_31" class="st0" d="M1614.7,2316c59.5,78.8,16.4,133.3,14.2,198.7c-2.4,69.6,45.4,164-27.7,195.8
				c-74.5,32.5-214.9,13.5-345.7-33.1c-119.3-42.6-193.3-141.5-308.3-200.1c-139.6-71.1-312.7-80.7-422.1-171.9
				c-109.8-91.5-133.3-197.2-99.5-262.8c32.1-62.2,183-40.6,270.2-68.1c88.3-27.8,108.6-120.8,243-93.6
				c134.1,27.2,253.7,140,377.1,219.4C1424.6,2170.4,1554.2,2235.9,1614.7,2316z"/>
			<path id="Path_32" class="st0" d="M1541.7,2313.9c51.8,68.5,14.3,115.9,12.3,172.8c-2.1,60.5,39.5,142.6-24,170.2
				c-64.8,28.2-186.8,11.8-300.5-28.8c-103.8-37-168.1-123-268.1-173.9c-121.3-61.8-271.9-70.2-367-149.4
				c-95.5-79.6-115.9-171.4-86.5-228.5c27.9-54.1,159.1-35.3,234.9-59.2c76.8-24.2,94.4-105.1,211.2-81.3
				c116.6,23.7,220.6,121.7,327.9,190.8C1376.4,2187.3,1489.1,2244.3,1541.7,2313.9z"/>
			<path id="Path_33" class="st0" d="M1474.1,2312c44.6,59,12.3,99.8,10.6,148.7c-1.8,52.1,34,122.7-20.7,146.5
				c-55.7,24.3-160.8,10.1-258.7-24.8c-89.3-31.8-144.7-105.9-230.7-149.7c-104.4-53.2-234-60.4-315.9-128.6
				c-82.2-68.5-99.8-147.5-74.4-196.6c24-46.5,136.9-30.4,202.2-51c66.1-20.8,81.3-90.4,181.8-70
				c100.4,20.4,189.8,104.8,282.2,164.2C1331.9,2203,1428.8,2252,1474.1,2312z"/>
			<path id="Path_34" class="st0" d="M1403.7,2310c37,49,10.2,82.9,8.8,123.7c-1.5,43.3,28.3,102-17.2,121.9
				c-46.3,20.2-133.7,8.4-215.1-20.6c-74.3-26.5-120.3-88.1-191.9-124.5c-86.8-44.2-194.6-50.2-262.7-106.9
				c-68.3-57-83-122.7-61.9-163.5c20-38.7,113.9-25.3,168.2-42.4c55-17.3,67.6-75.2,151.2-58.2c83.5,16.9,157.9,87.1,234.7,136.5
				C1285.4,2219.4,1366.1,2260.1,1403.7,2310z"/>
		</g>
	</g>
</g>
</svg>
