<?xml version="1.0" encoding="utf-8"?>
<!-- Generator: Adobe Illustrator 26.1.0, SVG Export Plug-In . SVG Version: 6.00 Build 0)  -->
<svg version="1.1" id="Layer_1" xmlns="http://www.w3.org/2000/svg" xmlns:xlink="http://www.w3.org/1999/xlink" x="0px" y="0px"
	 viewBox="0 0 1950 600" style="enable-background:new 0 0 1950 600;" xml:space="preserve">
<style type="text/css">
	.st0{opacity:0.5;fill:none;stroke:#555555;stroke-miterlimit:10;}
</style>
<path id="XMLID_827_" class="st0" d="M2391.8,272c0,0-109.6,164.7-363,191.4s-307.1,254.7-190.1,439.6"/>
<path id="XMLID_817_" class="st0" d="M2374.1,346.3c0,0-57.2,133.2-214.1,148.1c-156.9,14.9-346,8.7-305.3,332.8"/>
<path id="XMLID_814_" class="st0" d="M1718.8,788.2c0.9-4.1-77.1-310.7,146.8-355.1c223.9-44.2,270.1-149.7,271.1-363.5"/>
<path id="XMLID_839_" class="st0" d="M2007.1,0c0,0-104.3,183.3-371.8,230.7S1327.8,524.6,1466,712.4"/>
<path id="XMLID_834_" class="st0" d="M1994.1,116.3c0,0-50.8,146-216.6,173.6c-165.8,27.6-367.3,35.1-299.8,376.7"/>
<path id="XMLID_833_" class="st0" d="M1374.8,643.4c0.6-4.5-162.3-336.7,72.5-400.4s276-179.3,261-406.8"/>
</svg>
